<?xml version="1.0" standalone="no"?>
<!DOCTYPE svg PUBLIC "-//W3C//DTD SVG 20010904//EN"
 "http://www.w3.org/TR/2001/REC-SVG-20010904/DTD/svg10.dtd">
<svg version="1.0" xmlns="http://www.w3.org/2000/svg"
 width="1280.000000pt" height="1198.000000pt" viewBox="0 0 1280.000000 1198.000000"
 preserveAspectRatio="xMidYMid meet">
<metadata>
Created by potrace 1.15, written by Peter Selinger 2001-2017
</metadata>
<g transform="translate(0.000000,1198.000000) scale(0.100000,-0.100000)"
fill="#00a6c4" stroke="none">
<path d="M1753 11958 c-55 -62 -100 -294 -116 -598 l-2 -45 -59 -3 c-80 -4
-144 11 -205 49 -73 46 -124 48 -306 10 -173 -35 -272 -47 -478 -57 l-149 -6
-36 35 c-66 64 -132 80 -213 52 -84 -30 -139 -108 -139 -200 0 -189 218 -285
350 -154 l31 32 182 -6 c184 -6 317 -22 484 -57 144 -31 193 -28 278 19 76 42
161 60 228 47 l34 -6 7 -123 c16 -298 75 -532 136 -532 61 0 111 157 140 444
5 57 10 125 10 152 l0 49 123 0 123 0 17 -128 c22 -167 48 -253 88 -286 27
-23 40 -26 107 -27 84 -1 178 -12 188 -22 4 -4 8 -104 9 -224 2 -120 8 -285
14 -368 6 -82 15 -238 20 -345 4 -116 13 -205 20 -218 6 -12 24 -25 39 -28 83
-19 106 -28 134 -53 43 -38 41 -73 -5 -134 -20 -27 -59 -66 -86 -88 -28 -21
-56 -49 -63 -61 -16 -31 -16 -52 27 -1438 41 -1325 55 -1998 55 -2610 0 -814
-32 -1640 -85 -2210 -22 -228 -20 -293 8 -325 34 -39 86 -44 141 -11 24 14 52
26 61 26 10 0 34 -18 55 -41 31 -34 46 -42 84 -46 25 -3 51 -12 57 -19 32 -39
-47 -145 -119 -159 -20 -4 -83 -8 -140 -10 -118 -4 -130 -9 -189 -86 -65 -87
-94 -203 -132 -541 -19 -170 -22 -180 -85 -283 -44 -71 -80 -183 -102 -309 -9
-50 -17 -92 -19 -94 -2 -2 -78 -6 -169 -9 -137 -5 -166 -4 -170 8 -2 8 -9 79
-15 159 -23 306 -75 485 -141 485 -61 0 -120 -234 -136 -532 l-7 -123 -31 -2
c-107 -5 -152 3 -228 43 -96 49 -129 50 -328 10 -178 -36 -323 -51 -493 -51
l-129 0 -30 30 c-129 129 -348 32 -348 -155 0 -190 224 -285 352 -149 l27 29
193 -7 c194 -6 309 -20 492 -59 132 -29 185 -23 266 26 59 36 69 38 161 43
l99 5 0 -66 c0 -85 17 -251 36 -356 31 -173 80 -270 122 -245 27 16 69 112 86
197 16 76 43 302 48 402 l3 50 140 3 c77 2 154 0 171 -3 l30 -5 12 -100 c23
-197 52 -280 108 -317 48 -31 512 -35 3154 -24 1383 6 3069 11 3745 11 1203 0
1231 0 1262 20 57 34 106 170 119 331 l7 78 41 6 c23 4 64 5 91 3 l50 -3 3
-55 c10 -222 54 -473 95 -544 32 -57 51 -65 80 -38 56 53 104 292 120 602 l2
45 90 -1 c86 -1 94 -3 168 -42 93 -49 130 -53 267 -22 176 39 343 58 567 62
l112 3 33 -32 c64 -62 148 -79 223 -44 169 78 165 324 -7 395 -74 31 -158 14
-216 -44 l-30 -30 -129 0 c-170 0 -315 15 -493 51 -200 40 -236 39 -324 -10
-71 -39 -126 -49 -232 -43 l-31 2 -7 122 c-15 291 -74 527 -133 536 -35 5 -71
-54 -98 -161 -25 -99 -55 -334 -55 -431 0 -30 -5 -58 -10 -61 -6 -4 -46 -3
-89 0 l-78 7 -6 183 c-8 264 -17 278 -176 290 -134 10 -136 14 -145 181 -4 71
-14 237 -22 369 -12 188 -15 392 -12 940 1 385 2 920 1 1188 -2 447 -4 492
-20 525 -25 52 -70 74 -166 82 -69 6 -83 11 -98 31 -55 74 -62 79 -117 95 -58
17 -92 38 -92 59 0 6 14 24 31 41 55 51 55 65 4 174 -57 121 -55 128 35 145
26 5 51 24 96 71 l60 64 96 0 c83 0 97 3 113 20 18 20 19 62 20 903 1 485 7
1031 14 1212 35 1010 82 2031 111 2410 24 308 40 630 34 665 -4 18 6 39 35 77
56 75 111 257 111 369 l0 44 135 0 135 0 0 -55 c0 -98 30 -333 55 -432 27
-107 63 -166 98 -161 59 9 118 245 133 534 l7 122 38 5 c63 8 162 -8 205 -35
94 -57 138 -61 319 -23 171 35 266 45 467 52 l177 6 31 -32 c78 -77 189 -83
271 -13 128 110 95 312 -60 367 -81 28 -147 12 -213 -52 l-36 -35 -149 6
c-206 10 -305 22 -478 57 -182 38 -233 36 -306 -10 -61 -38 -125 -53 -205 -49
l-59 3 -2 45 c-16 310 -64 549 -120 602 -29 27 -48 19 -80 -38 -42 -74 -93
-368 -93 -541 l0 -63 -117 0 c-65 0 -123 4 -129 8 -7 4 -13 70 -17 172 -7 173
-17 229 -43 251 -14 11 -374 17 -1978 31 -1078 9 -2905 26 -4059 37 -1763 18
-2103 19 -2130 7 -89 -37 -180 -218 -203 -403 -13 -108 -6 -103 -144 -103
l-120 0 0 58 c0 77 -26 304 -45 397 -24 116 -68 205 -100 205 -6 0 -21 -10
-32 -22z"/>
</g>
</svg>
